<svg width="116" height="21" viewBox="0 0 116 21" fill="none" xmlns="http://www.w3.org/2000/svg">
<path d="M0.96 1.828H8.24C10.0133 1.828 11.4133 1.94933 12.44 2.192C13.4853 2.43467 14.2413 2.864 14.708 3.48C15.1933 4.07733 15.436 4.91733 15.436 6V9.444C15.436 10.6387 15.1747 11.572 14.652 12.244C14.148 12.916 13.336 13.392 12.216 13.672C11.1147 13.952 9.62133 14.092 7.736 14.092H5.328V20H0.96V1.828ZM8.1 11.096C9.23867 11.096 10.0413 10.9653 10.508 10.704C10.9747 10.424 11.208 9.95733 11.208 9.304V6.392C11.208 5.79467 10.984 5.40267 10.536 5.216C10.1067 5.02933 9.276 4.936 8.044 4.936H5.328V11.096H8.1ZM18.4587 1.548H22.5467V4.852H18.4587V1.548ZM18.4587 6.448H22.5467V20H18.4587V6.448ZM26.249 0.399999H30.337V20H26.249V0.399999ZM30.505 12.384L34.957 6.448H39.633L34.929 12.356L40.025 20H35.405L30.505 12.384ZM41.3701 6.448H45.4021V8.1C45.7195 6.812 47.1661 6.168 49.7421 6.168C51.4781 6.168 52.6915 6.48533 53.3821 7.12C54.0915 7.736 54.4461 8.716 54.4461 10.06V20H50.3581V10.592C50.3581 10.0693 50.3021 9.67733 50.1901 9.416C50.0968 9.15467 49.8915 8.968 49.5741 8.856C49.2755 8.744 48.8088 8.688 48.1741 8.688C47.3715 8.688 46.7835 8.744 46.4101 8.856C46.0368 8.94933 45.7848 9.12667 45.6541 9.388C45.5235 9.64933 45.4581 10.0507 45.4581 10.592V20H41.3701V6.448ZM58.1345 1.548H62.2225V4.852H58.1345V1.548ZM58.1345 6.448H62.2225V20H58.1345V6.448ZM65.9248 0.399999H70.0128V20H65.9248V0.399999ZM70.1808 12.384L74.6328 6.448H79.3088L74.6048 12.356L79.7008 20H75.0808L70.1808 12.384ZM80.6539 16.136H85.0219V20H80.6539V16.136ZM94.818 20.28C94.1086 20.28 93.5486 20.2613 93.138 20.224C92.7273 20.2053 92.2233 20.1587 91.626 20.084C91.0286 20.0093 90.534 19.8787 90.142 19.692C89.7686 19.5053 89.3766 19.2253 88.966 18.852C88.2006 18.2173 87.818 17.1347 87.818 15.604V11.096C87.818 9.864 88.098 8.83733 88.658 8.016C88.8633 7.71733 89.162 7.44667 89.554 7.204C89.9646 6.94267 90.3753 6.73733 90.786 6.588C91.122 6.476 91.57 6.38267 92.13 6.308C92.69 6.23333 93.1846 6.18667 93.614 6.168H95.098C96.1433 6.168 97.5153 6.336 99.214 6.672V9.36C97.2913 8.912 95.8166 8.688 94.79 8.688C92.9046 8.688 91.962 9.32267 91.962 10.592V15.576C91.962 17.0133 92.998 17.732 95.07 17.732C96.078 17.732 97.5246 17.5267 99.41 17.116V19.804C97.7113 20.1213 96.1806 20.28 94.818 20.28ZM108.214 20.28C107.374 20.28 106.683 20.252 106.142 20.196C105.6 20.14 105.022 20.028 104.406 19.86C103.734 19.6733 103.192 19.412 102.782 19.076C102.371 18.7213 102.026 18.2267 101.746 17.592C101.466 16.976 101.326 16.2293 101.326 15.352V11.348C101.326 10.452 101.466 9.668 101.746 8.996C102.026 8.324 102.39 7.80133 102.838 7.428C103.23 7.11067 103.743 6.84933 104.378 6.644C105.031 6.42 105.666 6.28 106.282 6.224C106.991 6.18667 107.635 6.168 108.214 6.168C109.072 6.168 109.754 6.196 110.258 6.252C110.78 6.28933 111.35 6.40133 111.966 6.588C112.638 6.79333 113.179 7.07333 113.59 7.428C114.019 7.78267 114.383 8.28667 114.682 8.94C114.962 9.612 115.102 10.4147 115.102 11.348V15.352C115.102 16.192 114.962 16.9293 114.682 17.564C114.42 18.1987 114.075 18.6933 113.646 19.048C113.272 19.3653 112.759 19.6267 112.106 19.832C111.471 20.0187 110.846 20.14 110.23 20.196C109.67 20.252 108.998 20.28 108.214 20.28ZM108.214 17.732C108.979 17.732 109.558 17.676 109.95 17.564C110.342 17.4333 110.612 17.2373 110.762 16.976C110.93 16.7147 111.014 16.332 111.014 15.828V10.704C111.014 9.95733 110.818 9.43467 110.426 9.136C110.034 8.83733 109.296 8.688 108.214 8.688C107.131 8.688 106.394 8.83733 106.002 9.136C105.61 9.43467 105.414 9.95733 105.414 10.704V15.828C105.414 16.332 105.488 16.7147 105.638 16.976C105.806 17.2373 106.086 17.4333 106.478 17.564C106.87 17.676 107.448 17.732 108.214 17.732Z" fill="#48DBFB"/>
</svg>
